<svg width="144" height="146" viewBox="0 0 144 146" fill="none" xmlns="http://www.w3.org/2000/svg">
<path d="M46.1561 86.6946L3.3763 76.2252C2.76028 76.0745 2.21246 75.7219 1.82018 75.2235C1.4279 74.7254 1.2138 74.11 1.21196 73.4757C1.21009 72.8417 1.42064 72.2252 1.80999 71.7246C2.19934 71.2239 2.74506 70.8682 3.36018 70.7139L46.2979 59.9478L46.1561 86.6946Z" fill="#FFAA00" stroke="#161032" stroke-width="1.63557" stroke-linejoin="round"/>
<path d="M3.37629 76.2253L46.1561 86.6947L46.227 73.3213L1.21194 73.4758C1.21379 74.1101 1.42789 74.7255 1.82017 75.2236C2.21245 75.722 2.76027 76.0746 3.37629 76.2253Z" fill="#FF8800" stroke="#161032" stroke-width="1.63557" stroke-linejoin="round"/>
<path d="M85.0622 46.9851L74.5928 4.20537C74.442 3.58935 74.0894 3.04153 73.5911 2.64925C73.0929 2.25697 72.4775 2.04287 71.8433 2.04103C71.2093 2.03916 70.5927 2.24972 70.0922 2.63907C69.5915 3.02841 69.2358 3.57413 69.0815 4.18926L58.3153 47.1269L85.0622 46.9851Z" fill="#FFAA00" stroke="#161032" stroke-width="1.63557" stroke-linejoin="round"/>
<path d="M74.5929 4.20536L85.0623 46.9851L71.6888 47.056L71.8434 2.04102C72.4777 2.04286 73.093 2.25696 73.5912 2.64924C74.0895 3.04152 74.4421 3.58934 74.5929 4.20536Z" fill="#FF8800" stroke="#161032" stroke-width="1.63557" stroke-linejoin="round"/>
<path d="M85.0622 99.7107L74.5928 142.49C74.442 143.106 74.0894 143.654 73.5911 144.047C73.0929 144.439 72.4775 144.653 71.8433 144.655C71.2093 144.657 70.5927 144.446 70.0922 144.057C69.5915 143.667 69.2358 143.122 69.0815 142.507L58.3153 99.5689L85.0622 99.7107Z" fill="#FFAA00" stroke="#161032" stroke-width="1.63557" stroke-linejoin="round"/>
<path d="M74.5929 142.49L85.0623 99.7107L71.6888 99.6398L71.8434 144.655C72.4777 144.653 73.093 144.439 73.5912 144.047C74.0895 143.654 74.4421 143.106 74.5929 142.49Z" fill="#FF8800" stroke="#161032" stroke-width="1.63557" stroke-linejoin="round"/>
<path d="M97.1516 59.8757L139.931 70.3451C140.547 70.4958 141.095 70.8484 141.487 71.3468C141.88 71.845 142.094 72.4603 142.096 73.0946C142.098 73.7286 141.887 74.3452 141.498 74.8457C141.108 75.3464 140.563 75.7021 139.947 75.8564L97.0098 86.6226L97.1516 59.8757Z" fill="#FFAA00" stroke="#161032" stroke-width="1.63557" stroke-linejoin="round"/>
<path d="M139.931 70.345L97.1516 59.8756L97.0807 73.249L142.096 73.0945C142.094 72.4602 141.88 71.8449 141.487 71.3467C141.095 70.8483 140.547 70.4957 139.931 70.345Z" fill="#FF8800" stroke="#161032" stroke-width="1.63557" stroke-linejoin="round"/>
<path d="M97.5305 60.2787L113.868 33.0439C114.123 32.619 114.229 32.1216 114.169 31.6298C114.109 31.1383 113.886 30.6808 113.536 30.3299C113.187 29.9792 112.73 29.7551 112.239 29.6932C111.748 29.6313 111.25 29.7353 110.824 29.9884L83.2993 46.3651L97.5305 60.2787Z" fill="#FFAA00" stroke="#161032" stroke-width="1.63557" stroke-linejoin="round"/>
<path d="M113.939 32.9748L97.6017 60.2096L90.4861 53.2528L113.608 30.2607C113.957 30.6117 114.18 31.0692 114.24 31.5607C114.3 32.0525 114.194 32.5499 113.939 32.9748Z" fill="#FF8800" stroke="#161032" stroke-width="1.63557" stroke-linejoin="round"/>
<path d="M98.9272 86.2369L115.265 113.472C115.52 113.897 115.625 114.394 115.565 114.886C115.505 115.377 115.283 115.835 114.933 116.186C114.584 116.536 114.127 116.76 113.636 116.822C113.144 116.884 112.646 116.78 112.22 116.527L84.6959 100.151L98.9272 86.2369Z" fill="#FFAA00" stroke="#161032" stroke-width="1.63557" stroke-linejoin="round"/>
<path d="M115.336 113.541L98.9984 86.306L91.8827 93.2628L115.004 116.255C115.354 115.904 115.576 115.446 115.636 114.955C115.696 114.463 115.591 113.966 115.336 113.541Z" fill="#FF8800" stroke="#161032" stroke-width="1.63557" stroke-linejoin="round"/>
<path d="M43.7193 86.0548L27.3816 113.29C27.1269 113.714 27.0212 114.212 27.0813 114.704C27.1413 115.195 27.3639 115.653 27.7134 116.004C28.0629 116.354 28.5197 116.578 29.011 116.64C29.5023 116.702 30.0002 116.598 30.426 116.345L57.9506 99.9684L43.7193 86.0548Z" fill="#FFAA00" stroke="#161032" stroke-width="1.63557" stroke-linejoin="round"/>
<path d="M27.3104 113.359L43.6482 86.1239L50.7638 93.0807L27.6422 116.073C27.2927 115.722 27.0701 115.264 27.0101 114.773C26.95 114.281 27.0557 113.784 27.3104 113.359Z" fill="#FF8800" stroke="#161032" stroke-width="1.63557" stroke-linejoin="round"/>
<path d="M44.3084 60.0214L27.9706 32.7866C27.7159 32.3617 27.6103 31.8643 27.6703 31.3725C27.7303 30.881 27.9529 30.4235 28.3024 30.0725C28.6519 29.7218 29.1087 29.4978 29.6 29.4359C30.0913 29.374 30.5892 29.478 31.0151 29.7311L58.5396 46.1078L44.3084 60.0214Z" fill="#FFAA00" stroke="#161032" stroke-width="1.63557" stroke-linejoin="round"/>
<path d="M27.8994 32.7175L44.2372 59.9523L51.3528 52.9955L28.2312 30.0034C27.8817 30.3543 27.6591 30.8118 27.5991 31.3034C27.5391 31.7951 27.6447 32.2926 27.8994 32.7175Z" fill="#FF8800" stroke="#161032" stroke-width="1.63557" stroke-linejoin="round"/>
<mask id="mask0_0_187" style="mask-type:luminance" maskUnits="userSpaceOnUse" x="41" y="43" width="60" height="60">
<path d="M100.171 72.5792C100.171 56.2789 86.9572 43.0649 70.6569 43.0649C54.3566 43.0649 41.1426 56.2789 41.1426 72.5792C41.1426 88.8795 54.3566 102.094 70.6569 102.094C86.9572 102.094 100.171 88.8795 100.171 72.5792Z" fill="white"/>
</mask>
<g mask="url(#mask0_0_187)">
<path d="M71.1532 102.093C87.4827 102.093 100.72 88.855 100.72 72.5257C100.72 56.1962 87.4827 42.9585 71.1532 42.9585C54.8237 42.9585 41.5862 56.1962 41.5862 72.5257C41.5862 88.855 54.8237 102.093 71.1532 102.093Z" fill="#FF8800" stroke="#161032" stroke-width="2.26971" stroke-linejoin="round"/>
</g>
<g clip-path="url(#clip0_0_187)">
<rect x="41.2599" y="43.3706" width="59.1343" height="59.1343" rx="29.5671" fill="white"/>
<path d="M70.8276 43.9155C86.8559 43.9156 99.8491 56.9097 99.8491 72.938C99.8491 88.9662 86.8558 101.959 70.8276 101.959C54.7994 101.959 41.8052 88.9662 41.8052 72.938C41.8052 56.9097 54.7993 43.9155 70.8276 43.9155Z" fill="#FFAA00" stroke="#161032" stroke-width="1.09038"/>
<path fill-rule="evenodd" clip-rule="evenodd" d="M70.8275 45.4234H70.8273C55.6316 45.4234 43.3131 57.7419 43.3131 72.9376V72.9379C43.3131 88.1335 55.6316 100.452 70.8273 100.452H70.8275C86.0232 100.452 98.3417 88.1335 98.3417 72.9379V72.9376C98.3417 57.7419 86.0232 45.4234 70.8275 45.4234ZM70.8273 43.3706H70.8275C87.1569 43.3706 100.395 56.6082 100.395 72.9376V72.9379C100.395 89.2673 87.1569 102.505 70.8275 102.505H70.8273C54.4979 102.505 41.2603 89.2673 41.2603 72.9379V72.9376C41.2603 56.6082 54.4979 43.3706 70.8273 43.3706Z" fill="#161032"/>
<rect width="72.6693" height="81.2653" rx="1.48634" transform="matrix(1 0 -0.175033 0.984563 25.0396 49.5283)" fill="white"/>
<path fill-rule="evenodd" clip-rule="evenodd" d="M4.96736 125.251L6.50558 116.599C6.72874 115.344 7.93495 114.333 9.21014 114.333H17.998C19.2732 114.333 20.1201 115.344 19.8969 116.599L18.3587 125.251C18.1355 126.507 16.9293 127.518 15.6541 127.518H6.86621C5.59102 127.518 4.74416 126.507 4.96736 125.251ZM7.75774 109.556L9.29596 100.903C9.51916 99.6475 10.7254 98.6369 12.0006 98.6369H20.7884C22.0636 98.6369 22.9105 99.6475 22.6873 100.903L21.1491 109.556C20.9259 110.811 19.7197 111.821 18.4445 111.821H9.65663C8.38144 111.821 7.53458 110.811 7.75774 109.556ZM10.5482 93.8594L12.0863 85.2072C12.3095 83.9517 13.5157 82.941 14.7909 82.941H23.5788C24.854 82.941 25.7009 83.9517 25.4777 85.2072L23.9395 93.8594C23.7163 95.1149 22.5101 96.1256 21.2349 96.1256H12.447C11.1718 96.1256 10.325 95.1149 10.5482 93.8594ZM13.3385 78.1635L14.8768 69.5111C15.0999 68.2558 16.3061 67.2451 17.5813 67.2451H26.3692C27.6444 67.2451 28.4912 68.2558 28.2681 69.5111L26.7299 78.1635C26.5067 79.419 25.3005 80.4297 24.0253 80.4297H15.2374C13.9622 80.4297 13.1153 79.419 13.3385 78.1635ZM16.129 62.4674L17.6671 53.8152C17.8903 52.5597 19.0965 51.549 20.3717 51.549H29.1596C30.4348 51.549 31.2817 52.5597 31.0585 53.8152L29.5203 62.4674C29.2971 63.7229 28.0909 64.7336 26.8157 64.7336H18.0278C16.7526 64.7336 15.9058 63.7229 16.129 62.4674ZM20.9093 125.251L22.4475 116.599C22.6707 115.344 23.8769 114.333 25.1521 114.333H33.9402C35.2152 114.333 36.062 115.344 35.8389 116.599L34.3007 125.251C34.0775 126.507 32.8712 127.518 31.5963 127.518H22.8082C21.533 127.518 20.6861 126.507 20.9093 125.251ZM23.6997 109.556L25.2379 100.903C25.4611 99.6475 26.6673 98.6369 27.9425 98.6369H36.7307C38.0056 98.6369 38.8525 99.6475 38.6293 100.903L37.091 109.556C36.8679 110.811 35.6617 111.821 34.3867 111.821H25.5986C24.3234 111.821 23.4765 110.811 23.6997 109.556ZM26.4901 93.8594L28.0283 85.2072C28.2515 83.9517 29.4577 82.941 30.7329 82.941H39.521C40.796 82.941 41.6428 83.9517 41.4196 85.2072L39.8815 93.8594C39.6583 95.1149 38.452 96.1256 37.1771 96.1256H28.389C27.1138 96.1256 26.2669 95.1149 26.4901 93.8594ZM29.2805 78.1635L30.8187 69.5111C31.0419 68.2558 32.2481 67.2451 33.5233 67.2451H42.3114C43.5863 67.2451 44.4332 68.2558 44.2101 69.5111L42.6718 78.1635C42.4486 79.419 41.2424 80.4297 39.9675 80.4297H31.1793C29.9042 80.4297 29.0573 79.419 29.2805 78.1635ZM32.0709 62.4674L33.6091 53.8152C33.8323 52.5597 35.0385 51.549 36.3137 51.549H45.1018C46.3768 51.549 47.2236 52.5597 47.0004 53.8152L45.4623 62.4674C45.2391 63.7229 44.0328 64.7336 42.7579 64.7336H33.9698C32.6946 64.7336 31.8477 63.7229 32.0709 62.4674ZM36.8515 125.251L38.3898 116.599C38.6129 115.344 39.8191 114.333 41.0941 114.333H49.8822C51.1574 114.333 52.0043 115.344 51.7811 116.599L50.2429 125.251C50.0197 126.507 48.8135 127.518 47.5383 127.518H38.7501C37.4752 127.518 36.6283 126.507 36.8515 125.251ZM39.6419 109.556L41.1801 100.903C41.4033 99.6475 42.6096 98.6369 43.8845 98.6369H52.6726C53.9478 98.6369 54.7947 99.6475 54.5715 100.903L53.0333 109.556C52.8101 110.811 51.6039 111.821 50.3287 111.821H41.5406C40.2656 111.821 39.4188 110.811 39.6419 109.556ZM42.4323 93.8594L43.9705 85.2072C44.1937 83.9517 45.3999 82.941 46.6749 82.941H55.463C56.7382 82.941 57.5851 83.9517 57.3619 85.2072L55.8237 93.8594C55.6005 95.1149 54.3943 96.1256 53.1191 96.1256H44.3309C43.056 96.1256 42.2091 95.1149 42.4323 93.8594ZM45.2227 78.1635L46.7609 69.5111C46.9841 68.2558 48.1903 67.2451 49.4652 67.2451H58.2534C59.5286 67.2451 60.3754 68.2558 60.1523 69.5111L58.6141 78.1635C58.3909 79.419 57.1846 80.4297 55.9095 80.4297H47.1213C45.8464 80.4297 44.9995 79.419 45.2227 78.1635ZM48.0131 62.4674L49.5513 53.8152C49.7745 52.5597 50.9807 51.549 52.2557 51.549H61.0438C62.319 51.549 63.1659 52.5597 62.9427 53.8152L61.4045 62.4674C61.1813 63.7229 59.9751 64.7336 58.6999 64.7336H49.9117C48.6368 64.7336 47.7899 63.7229 48.0131 62.4674ZM52.7935 125.251L54.3317 116.599C54.5549 115.344 55.7611 114.333 57.0363 114.333H65.8242C67.0994 114.333 67.9462 115.344 67.7231 116.599L66.1848 125.251C65.9616 126.507 64.7554 127.518 63.4802 127.518H54.6924C53.4172 127.518 52.5703 126.507 52.7935 125.251ZM55.5839 109.556L57.1221 100.903C57.3453 99.6475 58.5515 98.6369 59.8267 98.6369H68.6146C69.8898 98.6369 70.7366 99.6475 70.5134 100.903L68.9752 109.556C68.7521 110.811 67.5458 111.821 66.2707 111.821H57.4828C56.2076 111.821 55.3607 110.811 55.5839 109.556ZM58.3743 93.8594L59.9125 85.2072C60.1357 83.9517 61.3419 82.941 62.6171 82.941H71.405C72.6802 82.941 73.527 83.9517 73.3038 85.2072L71.7656 93.8594C71.5424 95.1149 70.3362 96.1256 69.061 96.1256H60.2732C58.998 96.1256 58.1511 95.1149 58.3743 93.8594ZM61.1647 78.1635L62.7029 69.5111C62.9261 68.2558 64.1323 67.2451 65.4075 67.2451H74.1953C75.4705 67.2451 76.3174 68.2558 76.0942 69.5111L74.556 78.1635C74.3328 79.419 73.1266 80.4297 71.8514 80.4297H63.0635C61.7883 80.4297 60.9415 79.419 61.1647 78.1635ZM63.9551 62.4674L65.4933 53.8152C65.7165 52.5597 66.9227 51.549 68.1979 51.549H76.9858C78.2609 51.549 79.1078 52.5597 78.8846 53.8152L77.3464 62.4674C77.1232 63.7229 75.917 64.7336 74.6418 64.7336H65.8539C64.5788 64.7336 63.7319 63.7229 63.9551 62.4674ZM68.7357 125.251L70.2739 116.599C70.4971 115.344 71.7031 114.333 72.9782 114.333L81.7664 114.333C83.0416 114.333 83.8884 115.344 83.6653 116.599L82.1271 125.251C81.9039 126.507 80.6976 127.518 79.4225 127.518H70.6343C69.3591 127.518 68.5125 126.507 68.7357 125.251ZM71.5261 109.556L73.0643 100.903C73.2875 99.6475 74.4935 98.6369 75.7687 98.6369H84.5568C85.832 98.6369 86.6789 99.6475 86.4557 100.903L84.9174 109.556C84.6943 110.811 83.4881 111.821 82.2129 111.821L73.4247 111.821C72.1496 111.821 71.3029 110.811 71.5261 109.556ZM74.3165 93.8594L75.8547 85.2072C76.0779 83.9517 77.2839 82.941 78.559 82.941H87.3472C88.6224 82.941 89.4692 83.9517 89.246 85.2072L87.7079 93.8594C87.4847 95.1149 86.2784 96.1256 85.0033 96.1256H76.2151C74.9399 96.1256 74.0933 95.1149 74.3165 93.8594ZM77.1069 78.1635L78.6451 69.5111C78.8683 68.2558 80.0742 67.2451 81.3494 67.2451H90.1376C91.4127 67.2451 92.2596 68.2558 92.0364 69.5111L90.4982 78.1635C90.275 79.419 89.0688 80.4297 87.7936 80.4297H79.0055C77.7303 80.4297 76.8837 79.419 77.1069 78.1635ZM79.8973 62.4674L81.4355 53.8152C81.6587 52.5597 82.8647 51.549 84.1398 51.549H92.928C94.2032 51.549 95.05 52.5597 94.8268 53.8152L93.2887 62.4674C93.0655 63.7229 91.8592 64.7336 90.5841 64.7336H81.7959C80.5207 64.7336 79.6741 63.7229 79.8973 62.4674Z" fill="#050035"/>
<path fill-rule="evenodd" clip-rule="evenodd" d="M70.8275 45.4234H70.8273C55.6316 45.4234 43.3131 57.7419 43.3131 72.9376V72.9379C43.3131 88.1335 55.6316 100.452 70.8273 100.452H70.8275C86.0232 100.452 98.3417 88.1335 98.3417 72.9379V72.9376C98.3417 57.7419 86.0232 45.4234 70.8275 45.4234ZM70.8273 43.3706H70.8275C87.1569 43.3706 100.395 56.6082 100.395 72.9376V72.9379C100.395 89.2673 87.1569 102.505 70.8275 102.505H70.8273C54.4979 102.505 41.2603 89.2673 41.2603 72.9379V72.9376C41.2603 56.6082 54.4979 43.3706 70.8273 43.3706Z" fill="#161032" stroke="#161032" stroke-width="0.545191"/>
</g>
<path d="M79.6461 49.5283H96.62C97.2642 49.5283 97.7491 50.1148 97.6281 50.7476L95.8794 59.8886L94.3717 68.3746C94.219 69.2345 93.1304 69.5228 92.572 68.8514L90.8377 66.766C90.6427 66.5316 90.3535 66.3959 90.0486 66.3959H83.7512C83.6104 66.3959 83.471 66.3669 83.3419 66.3108L78.4885 64.2001C78.04 64.0051 77.7914 63.5206 77.8946 63.0425L80.2007 52.3504C80.3066 51.8593 79.9841 51.3782 79.4896 51.2896C78.4236 51.0986 78.5632 49.5283 79.6461 49.5283Z" fill="white"/>
<path fill-rule="evenodd" clip-rule="evenodd" d="M79.9366 62.4765L81.4761 53.8171C81.6994 52.5606 82.9064 51.549 84.1827 51.549H92.9781C94.2544 51.549 95.1019 52.5606 94.8785 53.8171L93.3391 62.4765C93.1157 63.7331 91.9085 64.7446 90.6322 64.7446H81.8368C80.5605 64.7446 79.7132 63.7331 79.9366 62.4765Z" fill="#050035"/>
<defs>
<clipPath id="clip0_0_187">
<rect x="41.2599" y="43.3706" width="59.1343" height="59.1343" rx="29.5671" fill="white"/>
</clipPath>
</defs>
</svg> 